<svg xmlns="http://www.w3.org/2000/svg" width="1600" height="1000" viewBox="0 0 1600 1000">
  <rect width="1600" height="1000" rx="96" fill="#0A1215"/>
  <g transform="translate(240 210)">
    <rect x="0" y="0" width="580" height="580" rx="160" fill="#EFF8F5"/>
    <path d="M360 176c-42-34-122-36-174 10-74 66-62 212 32 266 70 40 158 16 194-36" fill="none" stroke="#0A1215" stroke-width="58" stroke-linecap="round"/>
    <path d="M254 314c36-46 76-68 120-68s84 22 120 68c-36 46-76 68-120 68s-84-22-120-68z" fill="#0A1215"/>
    <circle cx="374" cy="314" r="44" fill="#4F8BFF"/>
    <circle cx="374" cy="314" r="14" fill="#EFF8F5"/>
    <path d="M118 192h84" stroke="#7BE0CA" stroke-width="28" stroke-linecap="round"/>
    <path d="M118 388h84" stroke="#F0B85E" stroke-width="28" stroke-linecap="round"/>
  </g>
  <g font-family="sans-serif">
    <text x="910" y="430" font-size="118" font-weight="760" fill="#EFF8F5">CareSight</text>
    <text x="916" y="518" font-size="44" fill="#9BCFC4">Hub</text>
  </g>
</svg>
