<svg xmlns="http://www.w3.org/2000/svg" width="1600" height="1000" viewBox="0 0 1600 1000">
  <rect width="1600" height="1000" rx="96" fill="#0B1215"/>
  <g transform="translate(260 190)">
    <rect width="620" height="620" rx="150" fill="#142126"/>
    <rect x="176" y="104" width="304" height="418" rx="46" fill="#EAF6F1"/>
    <path d="M232 214h184M232 292h132M232 370h158" stroke="#102126" stroke-width="26" stroke-linecap="round"/>
    <path d="M282 464c-44-38-74-68-74-108 0-34 26-60 60-60 22 0 42 12 56 32 14-20 34-32 56-32 34 0 60 26 60 60 0 40-30 70-74 108l-42 36-42-36z" fill="#F4BF62"/>
  </g>
  <g font-family="sans-serif">
    <text x="940" y="420" font-size="116" font-weight="760" fill="#EAF6F1">CareSight</text>
    <text x="946" y="512" font-size="42" fill="#A8D8CF">Care moments, ready for review</text>
  </g>
</svg>
