<svg xmlns="http://www.w3.org/2000/svg" width="1600" height="1000" viewBox="0 0 1600 1000">
  <rect width="1600" height="1000" rx="96" fill="#F7F3EC"/>
  <g transform="translate(260 190)">
    <rect width="620" height="620" rx="150" fill="#102126"/>
    <path d="M310 124l198 88v134c0 126-74 212-198 270-124-58-198-144-198-270V212l198-88z" fill="#EAF6F1"/>
    <path d="M310 414c-68-58-112-102-112-160 0-48 36-84 84-84 32 0 58 16 78 44 20-28 46-44 78-44 48 0 84 36 84 84 0 58-44 102-112 160l-50 42-50-42z" fill="#F4BF62"/>
    <path d="M228 510h164" stroke="#6ED6C3" stroke-width="28" stroke-linecap="round"/>
  </g>
  <g font-family="sans-serif">
    <text x="930" y="420" font-size="116" font-weight="760" fill="#102126">CareSight</text>
    <text x="936" y="512" font-size="42" font-weight="560" fill="#3E6F66">Care with privacy and human review</text>
  </g>
</svg>
